<?xml version="1.0" encoding="utf-8"?>
<!-- Generator: Adobe Illustrator 16.0.0, SVG Export Plug-In . SVG Version: 6.00 Build 0)  -->
<!DOCTYPE svg PUBLIC "-//W3C//DTD SVG 1.1//EN" "http://www.w3.org/Graphics/SVG/1.1/DTD/svg11.dtd">
<svg version="1.1" id="Слой_1" xmlns="http://www.w3.org/2000/svg" xmlns:xlink="http://www.w3.org/1999/xlink" x="0px" y="0px"
	 width="512px" height="512px" viewBox="0 0 512 512" enable-background="new 0 0 512 512" xml:space="preserve">
<circle fill="#FFFFFF" cx="256" cy="255.75" r="244.25"/>
<linearGradient id="SVGID_1_" gradientUnits="userSpaceOnUse" x1="364.2795" y1="997.4219" x2="678.2888" y2="623.1999" gradientTransform="matrix(1 0 0 1 -265.2847 -554.5605)">
	<stop  offset="0" style="stop-color:#001D32"/>
	<stop  offset="1" style="stop-color:#40BFE8"/>
</linearGradient>
<path fill="url(#SVGID_1_)" d="M256,11.5c-134.896,0-244.25,109.354-244.25,244.25C11.75,390.646,121.104,500,256,500
	c134.896,0,244.25-109.354,244.25-244.25C500.25,120.854,390.896,11.5,256,11.5z M256,470.002
	c-118.328,0-214.252-95.924-214.252-214.252S137.672,41.498,256,41.498c118.327,0,214.252,95.924,214.252,214.252
	S374.327,470.002,256,470.002z"/>
<linearGradient id="SVGID_2_" gradientUnits="userSpaceOnUse" x1="275.7502" y1="269.8115" x2="396.7943" y2="125.5567">
	<stop  offset="0" style="stop-color:#1F6C8B"/>
	<stop  offset="1" style="stop-color:#40BFE8"/>
</linearGradient>
<path fill="url(#SVGID_2_)" d="M411.892,140.987c-12.353-16.591-30.429-27.379-50.896-30.375s-40.875,2.157-57.466,14.511
	l-25.259,18.808c-22.388,16.669-33.623,43.597-30.789,70.28c0,0,0.88,5.873,3.93,13.978l0.186,0.245l-3.815,2.895l31.331,41.304
	l4.13-3.133c6.542,5.168,11.369,8.001,11.369,8.001c6.016,2.518,12.278,4.254,18.642,5.185c19.819,2.903,40.568-1.911,57.516-14.529
	l25.258-18.809C430.279,223.847,437.395,175.236,411.892,140.987z M289.813,242.615l-8.912,6.76l-10.436-13.759l8.911-6.76
	l0.035,0.047l37.624-28.013c1.843-1.373,4.111-1.946,6.385-1.612c2.273,0.333,4.282,1.531,5.654,3.375
	c2.835,3.805,2.044,9.207-1.763,12.039L289.813,242.615z M342.879,192.375c-4.118-5.531-10.144-9.126-16.966-10.125
	c-6.323-0.926-12.628,0.486-17.92,3.976c0.362-0.303,0.728-0.603,1.111-0.886l25.259-18.809c11.417-8.5,27.619-6.128,36.121,5.289
	c8.501,11.416,6.128,27.62-5.288,36.121l-25.26,18.809c-0.382,0.283-0.771,0.547-1.165,0.806
	C349.158,218.846,351.076,203.386,342.879,192.375z M385.75,235.546l-25.259,18.809c-18.942,14.106-43.984,15.665-64.217,4.906
	l16.069-11.968c1.941,0.571,3.906,1.005,5.887,1.294c11.165,1.634,22.736-1.152,31.982-8.035l25.261-18.809
	c19.026-14.167,22.98-41.173,8.813-60.2c-14.167-19.028-41.174-22.981-60.201-8.813l-25.259,18.808
	c-10.886,8.104-17.246,20.929-17.313,34.347l-16.07,11.968c-4.508-22.468,4.162-46.012,23.105-60.117l25.26-18.81
	c12.903-9.608,28.777-13.615,44.695-11.286c15.919,2.331,29.978,10.72,39.587,23.624
	C417.925,177.902,412.391,215.711,385.75,235.546z"/>
<path fill="#1F6C8B" d="M325.12,300.716c0,0-36.236-14.34-39.65-13.504s-0.232,3.499-0.232,3.499s30.433,20.07,34.342,22.403
	c3.908,2.332,4.442,1.884,4.442,1.884s6.002-6.952,6.066-10.17C330.152,301.61,325.12,300.716,325.12,300.716z"/>
<path fill="#1F6C8B" d="M281.65,293.432c0,0-1.708-3.781-3.433-0.719c-1.725,3.063,2.316,41.822,2.316,41.822
	s-0.494,5.087,2.622,5.894c3.116,0.804,11.428-3.102,11.428-3.102s0.576-0.393-0.616-4.785
	C292.775,328.147,281.65,293.432,281.65,293.432z"/>
<path fill="#1F6C8B" d="M231.793,220.254c0,0,1.708,3.782,3.434,0.719c1.725-3.063-2.317-41.823-2.317-41.823
	s0.495-5.086-2.621-5.892c-3.116-0.806-11.428,3.101-11.428,3.101s-0.576,0.393,0.616,4.786S231.793,220.254,231.793,220.254z"/>
<path fill="#1F6C8B" d="M188.324,212.971c0,0,36.235,14.34,39.65,13.504c3.415-0.836,0.233-3.5,0.233-3.5
	s-30.433-20.07-34.342-22.401c-3.909-2.333-4.443-1.884-4.443-1.884s-6.001,6.951-6.066,10.169
	C183.293,212.077,188.324,212.971,188.324,212.971z"/>
<linearGradient id="SVGID_3_" gradientUnits="userSpaceOnUse" x1="116.8005" y1="389.623" x2="238.0002" y2="245.1829">
	<stop  offset="0" style="stop-color:#001D32"/>
	<stop  offset="1" style="stop-color:#1F6C8B"/>
</linearGradient>
<path fill="url(#SVGID_3_)" d="M261.175,286.242l4.129-3.134l-31.33-41.304l-3.816,2.895l-0.186-0.246
	c-6.983-5.121-12.402-7.552-12.402-7.552c-24.931-9.922-53.891-6.361-75.978,10.706l-24.921,19.253
	c-16.369,12.647-26.833,30.911-29.464,51.43c-2.63,20.517,2.885,40.829,15.533,57.199c26.107,33.79,74.837,40.039,108.626,13.93
	l24.921-19.254c16.72-12.918,26.948-31.602,29.495-51.471c0.818-6.377,0.836-12.877,0.031-19.349
	C265.814,299.346,264.387,293.934,261.175,286.242z M223.075,271.563l8.912-6.76l10.437,13.758l-8.913,6.761l-36.996,28.584
	c-3.753,2.902-9.168,2.208-12.069-1.548c-1.406-1.817-2.019-4.075-1.725-6.354c0.291-2.278,1.454-4.31,3.273-5.715l37.117-28.679
	L223.075,271.563z M170.829,322.88c8.392,10.862,23.797,13.184,34.985,5.528c-0.355,0.309-0.715,0.613-1.09,0.905l-24.922,19.255
	c-11.264,8.702-27.507,6.619-36.208-4.645c-8.703-11.265-6.619-27.506,4.644-36.209l24.921-19.256
	c0.375-0.291,0.762-0.563,1.152-0.83c-4.787,4.156-7.846,9.847-8.658,16.185C164.774,310.653,166.613,317.425,170.829,322.88z
	 M225.766,356.549l-24.92,19.253c-26.28,20.308-64.183,15.446-84.489-10.835c-9.836-12.731-14.126-28.53-12.08-44.488
	s10.185-30.163,22.916-40l24.921-19.255c18.689-14.44,43.699-16.444,64.12-6.047l-15.856,12.25
	c-12.939-3.552-27.003-0.884-37.742,7.415l-24.92,19.255c-18.772,14.503-22.245,41.577-7.74,60.35
	c14.504,18.771,41.577,22.243,60.348,7.738l24.921-19.255c9.121-7.048,14.922-17.44,16.358-28.634
	c0.254-1.983,0.367-3.995,0.34-6.017l15.856-12.25C252.706,318.413,244.457,342.107,225.766,356.549z"/>
</svg>
