<?xml version="1.0" encoding="utf-8"?>
<!-- Generator: Adobe Illustrator 16.0.0, SVG Export Plug-In . SVG Version: 6.00 Build 0)  -->
<!DOCTYPE svg PUBLIC "-//W3C//DTD SVG 1.1//EN" "http://www.w3.org/Graphics/SVG/1.1/DTD/svg11.dtd">
<svg version="1.1" id="Слой_1" xmlns="http://www.w3.org/2000/svg" xmlns:xlink="http://www.w3.org/1999/xlink" x="0px" y="0px"
	 width="512px" height="512px" viewBox="0 0 512 512" enable-background="new 0 0 512 512" xml:space="preserve">
<path d="M294.97,316.861"/>
<path fill="#A4A4A4" d="M484.218,80.548c-18.116-24.333-44.627-40.153-74.643-44.547c-30.017-4.395-59.946,3.163-84.278,21.281
	l-37.044,27.584c-32.833,24.447-49.311,63.938-45.155,103.071c0,0,1.292,8.613,5.764,20.499l0.272,0.359l-5.595,4.246l45.949,60.576
	l6.057-4.594c9.594,7.579,16.673,11.734,16.673,11.734c8.823,3.691,18.007,6.238,27.34,7.603
	c29.066,4.259,59.496-2.803,84.351-21.309l37.043-27.584C511.183,202.068,521.62,130.776,484.218,80.548z M305.179,229.593
	l-13.069,9.915l-15.306-20.179l13.069-9.915l0.052,0.068l55.179-41.083c2.701-2.013,6.029-2.854,9.363-2.364
	c3.334,0.488,6.28,2.246,8.293,4.95c4.157,5.581,2.997,13.502-2.586,17.656L305.179,229.593z M383.005,155.913
	c-6.039-8.111-14.877-13.385-24.882-14.848c-9.273-1.358-18.52,0.712-26.28,5.83c0.53-0.445,1.066-0.884,1.629-1.299l37.045-27.585
	c16.743-12.467,40.505-8.988,52.974,7.756c12.467,16.742,8.987,40.507-7.755,52.974l-37.045,27.584
	c-0.562,0.415-1.132,0.803-1.71,1.183C392.214,194.733,395.027,172.06,383.005,155.913z M445.879,219.225l-37.044,27.585
	c-27.781,20.688-64.507,22.974-94.179,7.194l23.566-17.552c2.848,0.837,5.729,1.474,8.633,1.898
	c16.375,2.396,33.345-1.689,46.905-11.784l37.047-27.585c27.904-20.776,33.703-60.383,12.924-88.288
	c-20.776-27.906-60.384-33.704-88.289-12.926l-37.045,27.583c-15.965,11.886-25.292,30.693-25.391,50.373l-23.569,17.551
	c-6.61-32.952,6.105-67.48,33.887-88.167l37.046-27.585c18.924-14.091,42.203-19.968,65.548-16.551
	c23.348,3.418,43.965,15.722,58.058,34.646C493.066,134.686,484.949,190.137,445.879,219.225z"/>
<path fill="#A4A4A4" d="M356.961,314.802c0,0-53.145-21.03-58.151-19.804c-5.007,1.226-0.341,5.131-0.341,5.131
	s44.632,29.435,50.365,32.856c5.731,3.42,6.516,2.763,6.516,2.763s8.802-10.196,8.896-14.915
	C364.339,316.113,356.961,314.802,356.961,314.802z"/>
<path fill="#A4A4A4" d="M293.207,304.119c0,0-2.505-5.546-5.034-1.055c-2.529,4.493,3.397,61.336,3.397,61.336
	s-0.725,7.46,3.846,8.644c4.57,1.179,16.759-4.549,16.759-4.549s0.845-0.576-0.903-7.018
	C309.524,355.032,293.207,304.119,293.207,304.119z"/>
<path fill="#A4A4A4" d="M220.089,196.799c0,0,2.505,5.546,5.036,1.055c2.529-4.492-3.399-61.336-3.399-61.336
	s0.726-7.459-3.843-8.641c-4.569-1.181-16.76,4.547-16.76,4.547s-0.844,0.576,0.904,7.02
	C203.774,145.886,220.089,196.799,220.089,196.799z"/>
<path fill="#A4A4A4" d="M156.338,186.117c0,0,53.142,21.03,58.15,19.805c5.007-1.226,0.341-5.134,0.341-5.134
	s-44.633-29.434-50.365-32.853c-5.733-3.421-6.516-2.763-6.516-2.763s-8.801,10.195-8.896,14.914
	C148.959,184.806,156.338,186.117,156.338,186.117z"/>
<path fill="#A4A4A4" d="M263.18,293.575l6.056-4.596l-45.949-60.576l-5.596,4.245l-0.273-0.36
	c-10.242-7.51-18.188-11.075-18.188-11.075c-36.563-14.551-79.035-9.329-111.427,15.701L51.254,265.15
	c-24.006,18.549-39.352,45.334-43.212,75.426c-3.857,30.089,4.231,59.879,22.78,83.887c38.289,49.556,109.755,58.721,159.309,20.429
	l36.549-28.236c24.522-18.945,39.521-46.347,43.256-75.486c1.201-9.353,1.226-18.885,0.046-28.376
	C269.983,312.793,267.89,304.855,263.18,293.575z M207.303,272.046l13.07-9.913l15.307,20.177l-13.071,9.915l-54.258,41.921
	c-5.505,4.257-13.446,3.238-17.7-2.271c-2.063-2.664-2.96-5.977-2.53-9.318c0.427-3.342,2.132-6.321,4.8-8.382l54.435-42.06
	L207.303,272.046z M130.681,347.308c12.308,15.931,34.899,19.334,51.309,8.107c-0.521,0.453-1.048,0.899-1.599,1.328l-36.551,28.238
	c-16.519,12.762-40.341,9.707-53.102-6.812c-12.764-16.521-9.708-40.34,6.81-53.103l36.549-28.241
	c0.55-0.427,1.117-0.824,1.689-1.218c-7.021,6.096-11.507,14.441-12.698,23.737C121.8,329.377,124.497,339.308,130.681,347.308z
	 M211.25,396.686l-36.548,28.236c-38.542,29.782-94.128,22.653-123.909-15.891c-14.426-18.672-20.717-41.842-17.716-65.245
	c3.001-23.404,14.937-44.237,33.608-58.663l36.549-28.239c27.409-21.178,64.087-24.116,94.037-8.868l-23.255,17.966
	c-18.976-5.209-39.602-1.297-55.352,10.875l-36.547,28.238c-27.531,21.27-32.625,60.977-11.351,88.508
	c21.271,27.528,60.976,32.621,88.505,11.349l36.549-28.239c13.376-10.336,21.885-25.578,23.991-41.993
	c0.372-2.909,0.538-5.859,0.499-8.824l23.254-17.966C250.76,340.757,238.661,375.506,211.25,396.686z"/>
</svg>
